# xmcd CD database file
# Copyright (C) 1993-1998 Ti Kan
# 
# Track frame offsets:
#     150
#     12063
#     26805
#     40368
#     51958
#     64278
#     77008
#     86515
#     97668
#     108678
#     119200
#     131420
#     143585
#     152963
#     164133
#     177123
#     186858
#     196430
#     206455
#     219805
#     231615
#     242905
#     256360
#     268575
# 
# Disc length: 3741 seconds
# 
# Revision: 1
# Processed by: cddbd v1.4b41PL1 Copyright (c) Steve Scherf et al.
# Submitted via: DiscPlay 4.0.4
# 
DISCID=5f0e9b18
DTITLE=The Soul Stirrers - Heaven is my home
DYEAR=1900
DGENRE=
TTITLE0=Christ is all
TTITLE1=He's my rock (Wait on Jesus)
TTITLE2=He's my rock (Wait on Jesus)
TTITLE3=In a few more days
TTITLE4=Golden Bells
TTITLE5=Golden Bells
TTITLE6=Sinner run to Jesus
TTITLE7=Heaven is my home
TTITLE8=Heaven is my home
TTITLE9=Until then
TTITLE10=Out on a hill
TTITLE11=Out on a hill
TTITLE12=Swing low, sweet chariot
TTITLE13=Swing low, sweet chariot
TTITLE14=Loved ones are waiting
TTITLE15=The love of God
TTITLE16=The love of God
TTITLE17=The love of God
TTITLE18=When the gates swing open
TTITLE19=The Lord laid his hands on me
TTITLE20=That's all I need to know
TTITLE21=My life belongs to him
TTITLE22=There's not a friend like Jesus
TTITLE23=Heaven is my home
EXTD=
EXTT0=
EXTT1=
EXTT2=
EXTT3=
EXTT4=
EXTT5=
EXTT6=
EXTT7=
EXTT8=
EXTT9=
EXTT10=
EXTT11=
EXTT12=
EXTT13=
EXTT14=
EXTT15=
EXTT16=
EXTT17=
EXTT18=
EXTT19=
EXTT20=
EXTT21=
EXTT22=
EXTT23=
PLAYORDER=
